<?xml version="1.0" encoding="UTF-8"?>
<svg id="Layer_1" data-name="Layer 1" xmlns="http://www.w3.org/2000/svg" xmlns:xlink="http://www.w3.org/1999/xlink" viewBox="0 0 320 66.63">
  <defs>
    <style>
      .cls-1 {
        fill: url(#linear-gradient-5);
      }

      .cls-2 {
        fill: url(#linear-gradient-6);
      }

      .cls-3 {
        fill: url(#linear-gradient-4);
      }

      .cls-4 {
        fill: url(#linear-gradient-3);
      }

      .cls-5 {
        fill: url(#linear-gradient-2);
      }

      .cls-6 {
        fill: url(#linear-gradient);
      }
    </style>
    <linearGradient id="linear-gradient" x1="80.77" y1="24.14" x2="320" y2="24.14" gradientTransform="translate(0 68) scale(1 -1)" gradientUnits="userSpaceOnUse">
      <stop offset="0" stop-color="#501d85"/>
      <stop offset=".33" stop-color="#442ba6"/>
      <stop offset="1" stop-color="#274bf3"/>
    </linearGradient>
    <linearGradient id="linear-gradient-2" x1="10.56" y1="29.84" x2="10.56" y2="68" gradientTransform="translate(0 68) scale(1 -1)" gradientUnits="userSpaceOnUse">
      <stop offset="0" stop-color="#274bf3"/>
      <stop offset=".67" stop-color="#442ba6"/>
      <stop offset="1" stop-color="#501d85"/>
    </linearGradient>
    <linearGradient id="linear-gradient-3" x1="10.56" y1="2.16" x2="10.56" y2="46.91" gradientTransform="translate(0 68) scale(1 -1)" gradientUnits="userSpaceOnUse">
      <stop offset="0" stop-color="#274bf3"/>
      <stop offset=".67" stop-color="#442ba6"/>
      <stop offset="1" stop-color="#501d85"/>
    </linearGradient>
    <linearGradient id="linear-gradient-4" x1="48.24" y1="0" x2="48.24" y2="65.83" gradientUnits="userSpaceOnUse">
      <stop offset="0" stop-color="#274bf3"/>
      <stop offset=".67" stop-color="#442ba6"/>
      <stop offset="1" stop-color="#501d85"/>
    </linearGradient>
    <linearGradient id="linear-gradient-5" x1="48.27" y1="36.37" x2="69.37" y2="36.37" gradientTransform="translate(0 68) scale(1 -1)" gradientUnits="userSpaceOnUse">
      <stop offset="0" stop-color="#501d85"/>
      <stop offset=".33" stop-color="#442ba6"/>
      <stop offset="1" stop-color="#274bf3"/>
    </linearGradient>
    <linearGradient id="linear-gradient-6" x1="37.72" y1="2.17" x2="37.72" y2="68" gradientTransform="translate(0 68) scale(1 -1)" xlink:href="#linear-gradient-4"/>
  </defs>
  <path class="cls-6" d="M256.54,49.64c.63-.61.94-1.54.94-2.8,0-2.7-.63-5.11-1.89-7.22s-3-3.78-5.23-4.99c-2.23-1.21-4.8-1.82-7.73-1.82-2.16,0-4.2.35-6.11,1.05s-3.6,1.74-5.06,3.14c-1.46,1.4-2.61,3.13-3.44,5.2s-1.25,4.48-1.25,7.22c0,3.78.74,6.95,2.23,9.52,1.48,2.56,3.57,4.49,6.24,5.77,2.68,1.28,5.75,1.92,9.21,1.92,2.25,0,4.24-.23,5.97-.67,1.73-.45,3.11-1.09,4.15-1.92,1.03-.83,1.55-1.81,1.55-2.94,0-.72-.19-1.38-.57-1.99s-.87-1.09-1.45-1.45c-.99.67-2.28,1.29-3.88,1.86-1.6.56-3.34.84-5.23.84-2.83,0-5.17-.7-7.02-2.09s-2.97-3.55-3.37-6.48l-.06-1.01h19.36c1.13-.16,2.01-.53,2.64-1.14ZM234.73,45.47c.37-1.64,1.06-2.98,2.07-4.03,1.55-1.62,3.5-2.43,5.84-2.43s3.98.64,5.2,1.92c1.21,1.28,1.89,2.8,2.02,4.56l-15.13-.02ZM82.12,28.92c-.9-.9-1.35-1.98-1.35-3.24s.45-2.4,1.35-3.27c.9-.88,2.02-1.32,3.37-1.32,1.44,0,2.59.44,3.44,1.32.85.88,1.28,1.97,1.28,3.27s-.43,2.34-1.28,3.24c-.86.9-2,1.35-3.44,1.35-1.35,0-2.47-.45-3.37-1.35ZM89.58,37.32v28.21c-.36.13-.87.26-1.52.37-.65.11-1.38.17-2.19.17-1.48,0-2.6-.27-3.34-.81s-1.11-1.51-1.11-2.9v-28.34c.36-.09.88-.19,1.55-.3.67-.11,1.39-.17,2.16-.17,1.53,0,2.65.27,3.37.81.72.53,1.08,1.52,1.08,2.96ZM121.95,44.81v20.71c-.36.13-.88.26-1.55.37-.67.11-1.4.17-2.16.17-1.53,0-2.66-.27-3.37-.81-.72-.54-1.08-1.51-1.08-2.9v-17.19c0-2.02-.57-3.51-1.72-4.45-1.15-.94-2.69-1.42-4.62-1.42-1.4,0-2.66.18-3.78.54-1.13.36-2.12.79-2.97,1.28v24.42c-.36.13-.87.26-1.52.37-.65.11-1.36.17-2.13.17-1.53,0-2.66-.27-3.37-.81-.72-.54-1.08-1.51-1.08-2.9v-21.79c0-1.08.21-1.96.64-2.63.43-.67,1.11-1.33,2.06-1.96,1.3-.85,3.03-1.6,5.16-2.23,2.14-.63,4.49-.94,7.05-.94,4.54,0,8.09,1.01,10.63,3.04,2.54,2.01,3.81,5,3.81,8.96ZM143.52,60.37c.27.52.4,1.11.4,1.79,0,1.26-.61,2.32-1.82,3.17s-3.13,1.28-5.74,1.28c-3.51,0-6.29-.79-8.33-2.36-2.05-1.57-3.07-4.16-3.07-7.76v-31.11c.36-.13.88-.27,1.55-.4.67-.14,1.39-.2,2.16-.2,1.48,0,2.59.28,3.31.84s1.08,1.54,1.08,2.94v4.99h10.06c.18.27.36.7.54,1.28.18.59.27,1.19.27,1.82,0,1.13-.25,1.95-.74,2.46-.5.52-1.19.78-2.09.78h-8.03v16.06c0,1.48.45,2.54,1.35,3.17.9.63,2.14.94,3.71.94.72,0,1.51-.1,2.36-.3s1.57-.44,2.16-.71c.31.37.6.8.87,1.32ZM176.7,49.64c.63-.61.94-1.54.94-2.8,0-2.7-.63-5.11-1.89-7.22s-3-3.78-5.23-4.99c-2.23-1.21-4.8-1.82-7.73-1.82-2.16,0-4.2.35-6.11,1.05s-3.6,1.74-5.06,3.14c-1.46,1.4-2.61,3.13-3.44,5.2s-1.25,4.48-1.25,7.22c0,3.78.74,6.95,2.23,9.52,1.48,2.56,3.57,4.49,6.24,5.77,2.68,1.28,5.75,1.92,9.21,1.92,2.25,0,4.24-.23,5.97-.67,1.73-.45,3.11-1.09,4.15-1.92,1.03-.83,1.55-1.81,1.55-2.94,0-.72-.19-1.38-.57-1.99s-.87-1.09-1.45-1.45c-.99.67-2.28,1.29-3.88,1.86-1.6.56-3.34.84-5.23.84-2.83,0-5.17-.7-7.02-2.09s-2.97-3.55-3.37-6.48l-.06-1.01h19.36c1.14-.16,2.01-.53,2.64-1.14ZM154.9,45.47c.37-1.64,1.06-2.98,2.07-4.03,1.55-1.62,3.5-2.43,5.84-2.43s3.98.64,5.2,1.92c1.21,1.28,1.89,2.8,2.02,4.56l-15.13-.02ZM201.79,36.65c0,.63-.09,1.2-.27,1.72-.18.52-.4.98-.67,1.38-.45-.09-1.01-.18-1.69-.27-.67-.09-1.37-.14-2.09-.14-1.66,0-3.22.18-4.66.54s-2.66.83-3.64,1.42v24.22c-.36.13-.87.26-1.52.37-.65.11-1.36.17-2.13.17-1.53,0-2.66-.27-3.37-.81-.72-.54-1.08-1.51-1.08-2.9v-21.65c0-1.12.26-2.07.78-2.83s1.27-1.48,2.26-2.16c1.35-.85,3.06-1.54,5.13-2.06s4.3-.78,6.68-.78c4.17,0,6.27,1.26,6.27,3.78ZM223.36,60.37c.27.52.4,1.11.4,1.79,0,1.26-.61,2.32-1.82,3.17s-3.13,1.28-5.74,1.28c-3.51,0-6.29-.79-8.33-2.36-2.05-1.57-3.07-4.16-3.07-7.76v-31.11c.36-.14.88-.27,1.55-.4s1.39-.2,2.16-.2c1.48,0,2.59.28,3.31.84s1.08,1.54,1.08,2.94v4.99h10.06c.18.27.36.7.54,1.28.18.59.27,1.19.27,1.82,0,1.13-.25,1.95-.74,2.46-.5.52-1.19.78-2.09.78h-8.03v16.06c0,1.48.45,2.54,1.35,3.17.9.63,2.14.94,3.71.94.72,0,1.51-.1,2.36-.3s1.57-.44,2.16-.71c.31.36.6.8.87,1.32ZM287.7,61.41c0,1.53-.91,2.78-2.73,3.75s-4.24,1.45-7.25,1.45c-3.42,0-6.42-.62-9.01-1.86-2.59-1.24-4.6-3.11-6.04-5.63s-2.16-5.62-2.16-9.31.76-6.93,2.29-9.45,3.59-4.41,6.17-5.67c2.59-1.26,5.41-1.89,8.47-1.89s5.37.53,7.19,1.59,2.73,2.33,2.73,3.81c0,.67-.18,1.29-.54,1.86-.36.56-.81,1.02-1.35,1.38-.86-.54-1.86-1.02-3-1.45-1.15-.43-2.51-.64-4.08-.64-2.7,0-4.98.9-6.85,2.7s-2.8,4.39-2.8,7.76.9,5.93,2.7,7.66c1.8,1.73,4.09,2.6,6.88,2.6,1.66,0,3.08-.21,4.25-.64s2.18-.91,3.04-1.45c.67.45,1.19.94,1.55,1.48.36.54.54,1.19.54,1.95ZM320,45.56v19.98c-.32.13-.81.26-1.48.37s-1.4.17-2.16.17c-1.58,0-2.71-.27-3.41-.81s-1.05-1.51-1.05-2.9v-16.42c0-2.34-.63-4.04-1.89-5.1-1.26-1.06-2.83-1.59-4.72-1.59-1.58,0-3.01.3-4.32.91-.8.37-1.51.77-2.16,1.2v24.14c-.36.13-.87.26-1.52.37s-1.36.17-2.13.17c-1.53,0-2.66-.27-3.37-.81-.72-.54-1.08-1.51-1.08-2.9V21.63c.31-.09.81-.2,1.48-.34.67-.13,1.42-.2,2.23-.2,1.53,0,2.64.28,3.34.84.7.56,1.05,1.54,1.05,2.94v9.88c.69-.34,1.47-.68,2.33-1.01,1.64-.63,3.48-.94,5.5-.94,4.05,0,7.29,1.06,9.72,3.17,2.43,2.12,3.64,5.31,3.64,9.59Z"/>
  <g>
    <path class="cls-5" d="M21.11.98v16.06c-11.66,0-21.11,9.45-21.11,21.12v-17.07C0,9.8,8.86.59,20,.01c.04,0,.08,0,.12,0C20.66,0,21.1.44,21.11.98Z"/>
    <path class="cls-4" d="M21.11,22.11v30.66c0,2.34-.62,4.54-1.69,6.44-.77,1.36-1.77,2.56-2.96,3.56h0c-2.27,1.92-5.21,3.07-8.42,3.07-2.84,0-5.46-.9-7.6-2.44-.02,0-.03-.02-.05-.03-.23-.19-.39-.48-.39-.81v-20.37c0-.68.03-1.35.1-2.02.98-10.34,9.42-18.51,19.88-19.07.05,0,.11-.01.16-.01.54.03.97.47.97,1.02Z"/>
    <g>
      <path class="cls-3" d="M68.36,21.08h-20.1V.98C48.25.44,47.81,0,47.25,0c-.04.01-.08.01-.12.01-4.73.25-9.05,2.05-12.45,4.91-3.86,3.25-6.54,7.85-7.31,13.07-.15,1.01-.23,2.04-.23,3.09v41.48c0,.33.16.62.4.8.02.01.03.02.05.03,2.14,1.54,4.76,2.44,7.6,2.44,7.22,0,13.07-5.85,13.07-13.07v-10.57h.78c2.31-.08,4.53-.54,6.6-1.31,7.7-2.87,13.27-10.11,13.71-18.7v-.1c0-.55-.45-1-.99-1Z"/>
      <g>
        <path class="cls-1" d="M69.37,22.08v.1h0c-.44,8.59-6.01,15.83-13.71,18.7-2.07.77-4.29,1.23-6.6,1.31h-.79v-21.11h20.11c.54,0,.99.45.99,1Z"/>
        <path class="cls-2" d="M48.28.98v51.78c0,7.22-5.85,13.07-13.07,13.07-2.84,0-5.46-.9-7.6-2.44-.02,0-.03-.02-.05-.03-.24-.18-.4-.47-.4-.8V21.08c0-1.05.08-2.08.23-3.09.77-5.22,3.45-9.82,7.31-13.07C38.1,2.06,42.42.26,47.15,0c.04,0,.08,0,.12,0,.56,0,1,.44,1.01.98Z"/>
      </g>
    </g>
  </g>
</svg>